<svg width="39" height="39" viewBox="0 0 39 39" fill="none" xmlns="http://www.w3.org/2000/svg">
<path d="M14.625 13.4062V10.3594C14.625 9.55129 14.946 8.77631 15.5174 8.20491C16.0888 7.63351 16.8638 7.3125 17.6719 7.3125H29.8594C30.6675 7.3125 31.4424 7.63351 32.0138 8.20491C32.5852 8.77631 32.9062 9.55129 32.9062 10.3594V28.6406C32.9062 29.4487 32.5852 30.2237 32.0138 30.7951C31.4424 31.3665 30.6675 31.6875 29.8594 31.6875H18.2812C16.5986 31.6875 14.625 30.3233 14.625 28.6406V25.5938" stroke="black" stroke-width="2" stroke-linecap="round" stroke-linejoin="round"/>
<path d="M21.9375 25.5938L28.0313 19.5L21.9375 13.4062M6.09375 19.5H26.8125" stroke="black" stroke-width="2" stroke-linecap="round" stroke-linejoin="round"/>
</svg>
